<svg width="120" height="140" viewBox="0 0 120 140" fill="none" xmlns="http://www.w3.org/2000/svg">
  <!-- Pantry Cabinet Shape (Letter P) -->
  <defs>
    <linearGradient id="cabinetGradient" x1="0%" y1="0%" x2="100%" y2="100%">
      <stop offset="0%" style="stop-color:#8B4513;stop-opacity:1" />
      <stop offset="100%" style="stop-color:#654321;stop-opacity:1" />
    </linearGradient>
    <linearGradient id="shelfGradient" x1="0%" y1="0%" x2="100%" y2="100%">
      <stop offset="0%" style="stop-color:#F5E6D3;stop-opacity:1" />
      <stop offset="100%" style="stop-color:#E8D5B7;stop-opacity:1" />
    </linearGradient>
  </defs>
  
  <!-- Main P-shaped cabinet outline -->
  <path d="M15 10 L15 130 L25 130 L25 80 L75 80 L75 70 L85 70 L85 40 L75 40 L75 30 L85 30 L85 10 L15 10 Z" 
        fill="url(#cabinetGradient)" stroke="#5D4037" stroke-width="3"/>
  
  <!-- Cabinet interior background -->
  <rect x="20" y="15" width="60" height="20" fill="url(#shelfGradient)" rx="2"/>
  <rect x="20" y="40" width="50" height="25" fill="url(#shelfGradient)" rx="2"/>
  <rect x="20" y="70" width="50" height="15" fill="url(#shelfGradient)" rx="2"/>
  <rect x="20" y="90" width="50" height="15" fill="url(#shelfGradient)" rx="2"/>
  <rect x="20" y="110" width="50" height="15" fill="url(#shelfGradient)" rx="2"/>
  
  <!-- Top shelf items -->
  <!-- Olive oil bottle -->
  <rect x="25" y="18" width="8" height="14" fill="#2E7D32" rx="1"/>
  <rect x="26" y="16" width="6" height="3" fill="#FF5722" rx="1"/>
  <ellipse cx="29" cy="22" rx="2" ry="1" fill="#81C784" opacity="0.7"/>
  
  <!-- Spice jar -->
  <rect x="38" y="20" width="6" height="10" fill="#FF5722" rx="1"/>
  <rect x="39" y="18" width="4" height="2" fill="#FF8A65" rx="1"/>
  
  <!-- Milk/juice -->
  <rect x="50" y="17" width="8" height="15" fill="#FFC107" rx="1"/>
  <rect x="51" y="15" width="6" height="3" fill="#FF9800" rx="1"/>
  <ellipse cx="54" cy="23" rx="2" ry="1" fill="#FFEB3B" opacity="0.6"/>
  
  <!-- Sauce jar -->
  <rect x="64" y="19" width="6" height="11" fill="#D32F2F" rx="1"/>
  <rect x="65" y="17" width="4" height="2" fill="#FF5722" rx="1"/>
  
  <!-- Middle shelf items -->
  <!-- Large jar -->
  <rect x="25" y="45" width="12" height="15" fill="#FF5722" rx="2"/>
  <rect x="27" y="42" width="8" height="4" fill="#FF8A65" rx="1"/>
  <ellipse cx="31" cy="52" rx="3" ry="2" fill="#FFAB91" opacity="0.7"/>
  
  <!-- Round container -->
  <circle cx="55" cy="52" r="8" fill="#FF7043"/>
  <circle cx="55" cy="52" r="6" fill="#FFAB91" opacity="0.8"/>
  <rect x="52" y="44" width="6" height="3" fill="#5D4037" rx="1"/>
  
  <!-- Third shelf items -->
  <!-- Egg carton -->
  <rect x="25" y="73" width="15" height="9" fill="#FFF3E0" rx="2"/>
  <rect x="27" y="75" width="3" height="5" fill="#FFCC02" rx="1"/>
  <rect x="32" y="75" width="3" height="5" fill="#FFCC02" rx="1"/>
  <rect x="37" y="75" width="3" height="5" fill="#FFCC02" rx="1"/>
  
  <!-- Small container -->
  <rect x="50" y="74" width="8" height="7" fill="#607D8B" rx="1"/>
  
  <!-- Fourth shelf items -->
  <!-- Bag/package -->
  <rect x="25" y="93" width="10" height="9" fill="#8BC34A" rx="2"/>
  <path d="M25 97 Q30 95 35 97" stroke="#689F38" stroke-width="1" fill="none"/>
  
  <!-- Can -->
  <rect x="40" y="94" width="8" height="8" fill="#FFC107" rx="1"/>
  <rect x="41" y="92" width="6" height="2" fill="#FF9800" rx="1"/>
  
  <!-- Bottom shelf items -->
  <!-- Jar -->
  <rect x="25" y="113" width="8" height="9" fill="#FFFDE7" rx="1"/>
  <rect x="26" y="111" width="6" height="3" fill="#F57F17" rx="1"/>
  
  <!-- Bag -->
  <path d="M40 113 Q45 111 50 113 L50 120 Q45 122 40 120 Z" fill="#FFC107"/>
  <circle cx="45" cy="115" r="1" fill="#FF8F00"/>
  
  <!-- Cabinet door handle (right side) -->
  <rect x="77" y="50" width="2" height="8" fill="#8D6E63" rx="1"/>
  
  <!-- Subtle shadow/depth -->
  <path d="M15 130 L25 130 L25 125 L15 125 Z" fill="#5D4037" opacity="0.3"/>
  <path d="M75 80 L85 80 L85 75 L75 75 Z" fill="#5D4037" opacity="0.3"/>
</svg> 